<svg xmlns="http://www.w3.org/2000/svg" viewBox="0 0 895 896" width="895" height="896">
<g transform="translate(201.60000000000002,36) scale(1)"><rect x="222.0" y="6.0" width="48" height="48" rx="7" ry="7" fill="rgb(30,190,112)"></rect><rect x="168.0" y="60.0" width="48" height="48" rx="7" ry="7" fill="rgb(28,187,121)"></rect><rect x="276.0" y="60.0" width="48" height="48" rx="7" ry="7" fill="rgb(30,190,112)"></rect><rect x="168.0" y="114.0" width="48" height="48" rx="7" ry="7" fill="rgb(27,185,125)"></rect><rect x="276.0" y="114.0" width="48" height="48" rx="7" ry="7" fill="rgb(29,189,116)"></rect><rect x="114.0" y="114.0" width="48" height="48" rx="7" ry="7" fill="rgb(26,184,130)"></rect><rect x="330.0" y="114.0" width="48" height="48" rx="7" ry="7" fill="rgb(30,190,112)"></rect><rect x="168.0" y="168.0" width="48" height="48" rx="7" ry="7" fill="rgb(26,184,130)"></rect><rect x="276.0" y="168.0" width="48" height="48" rx="7" ry="7" fill="rgb(28,187,121)"></rect><rect x="114.0" y="168.0" width="48" height="48" rx="7" ry="7" fill="rgb(25,182,134)"></rect><rect x="330.0" y="168.0" width="48" height="48" rx="7" ry="7" fill="rgb(29,189,116)"></rect><rect x="60.0" y="168.0" width="48" height="48" rx="7" ry="7" fill="rgb(23,180,139)"></rect><rect x="384.0" y="168.0" width="48" height="48" rx="7" ry="7" fill="rgb(30,190,112)"></rect><rect x="168.0" y="222.0" width="48" height="48" rx="7" ry="7" fill="rgb(25,182,134)"></rect><rect x="276.0" y="222.0" width="48" height="48" rx="7" ry="7" fill="rgb(27,185,125)"></rect><rect x="114.0" y="222.0" width="48" height="48" rx="7" ry="7" fill="rgb(23,180,139)"></rect><rect x="330.0" y="222.0" width="48" height="48" rx="7" ry="7" fill="rgb(28,187,121)"></rect><rect x="60.0" y="222.0" width="48" height="48" rx="7" ry="7" fill="rgb(22,178,143)"></rect><rect x="384.0" y="222.0" width="48" height="48" rx="7" ry="7" fill="rgb(29,189,116)"></rect><rect x="168.0" y="276.0" width="48" height="48" rx="7" ry="7" fill="rgb(23,180,139)"></rect><rect x="276.0" y="276.0" width="48" height="48" rx="7" ry="7" fill="rgb(26,184,130)"></rect><rect x="114.0" y="276.0" width="48" height="48" rx="7" ry="7" fill="rgb(22,178,143)"></rect><rect x="330.0" y="276.0" width="48" height="48" rx="7" ry="7" fill="rgb(27,185,125)"></rect><rect x="60.0" y="276.0" width="48" height="48" rx="7" ry="7" fill="rgb(21,177,148)"></rect><rect x="384.0" y="276.0" width="48" height="48" rx="7" ry="7" fill="rgb(28,187,121)"></rect><rect x="6.0" y="276.0" width="48" height="48" rx="7" ry="7" fill="rgb(20,175,152)"></rect><rect x="438.0" y="276.0" width="48" height="48" rx="7" ry="7" fill="rgb(29,189,116)"></rect><rect x="168.0" y="330.0" width="48" height="48" rx="7" ry="7" fill="rgb(22,178,143)"></rect><rect x="276.0" y="330.0" width="48" height="48" rx="7" ry="7" fill="rgb(25,182,134)"></rect><rect x="114.0" y="330.0" width="48" height="48" rx="7" ry="7" fill="rgb(21,177,148)"></rect><rect x="330.0" y="330.0" width="48" height="48" rx="7" ry="7" fill="rgb(26,184,130)"></rect><rect x="60.0" y="330.0" width="48" height="48" rx="7" ry="7" fill="rgb(20,175,152)"></rect><rect x="384.0" y="330.0" width="48" height="48" rx="7" ry="7" fill="rgb(27,185,125)"></rect><rect x="6.0" y="330.0" width="48" height="48" rx="7" ry="7" fill="rgb(19,173,157)"></rect><rect x="438.0" y="330.0" width="48" height="48" rx="7" ry="7" fill="rgb(28,187,121)"></rect><rect x="168.0" y="384.0" width="48" height="48" rx="7" ry="7" fill="rgb(21,177,148)"></rect><rect x="276.0" y="384.0" width="48" height="48" rx="7" ry="7" fill="rgb(23,180,139)"></rect><rect x="114.0" y="384.0" width="48" height="48" rx="7" ry="7" fill="rgb(20,175,152)"></rect><rect x="330.0" y="384.0" width="48" height="48" rx="7" ry="7" fill="rgb(25,182,134)"></rect><rect x="60.0" y="384.0" width="48" height="48" rx="7" ry="7" fill="rgb(19,173,157)"></rect><rect x="384.0" y="384.0" width="48" height="48" rx="7" ry="7" fill="rgb(26,184,130)"></rect><rect x="6.0" y="384.0" width="48" height="48" rx="7" ry="7" fill="rgb(18,172,161)"></rect><rect x="438.0" y="384.0" width="48" height="48" rx="7" ry="7" fill="rgb(27,185,125)"></rect><rect x="168.0" y="438.0" width="48" height="48" rx="7" ry="7" fill="rgb(20,175,152)"></rect><rect x="276.0" y="438.0" width="48" height="48" rx="7" ry="7" fill="rgb(22,178,143)"></rect><rect x="114.0" y="438.0" width="48" height="48" rx="7" ry="7" fill="rgb(19,173,157)"></rect><rect x="330.0" y="438.0" width="48" height="48" rx="7" ry="7" fill="rgb(23,180,139)"></rect><rect x="60.0" y="438.0" width="48" height="48" rx="7" ry="7" fill="rgb(18,172,161)"></rect><rect x="384.0" y="438.0" width="48" height="48" rx="7" ry="7" fill="rgb(25,182,134)"></rect><rect x="168.0" y="492.0" width="48" height="48" rx="7" ry="7" fill="rgb(19,173,157)"></rect><rect x="276.0" y="492.0" width="48" height="48" rx="7" ry="7" fill="rgb(21,177,148)"></rect><rect x="114.0" y="492.0" width="48" height="48" rx="7" ry="7" fill="rgb(18,172,161)"></rect><rect x="330.0" y="492.0" width="48" height="48" rx="7" ry="7" fill="rgb(22,178,143)"></rect><rect x="222.0" y="546.0" width="48" height="48" rx="7" ry="7" fill="rgb(19,173,157)"></rect><rect x="222.0" y="600.0" width="48" height="48" rx="7" ry="7" fill="rgb(18,172,161)"></rect></g>
<text x="448" y="819" font-family="Inter, -apple-system, Arial, sans-serif" font-weight="600" font-size="130" letter-spacing="-1" fill="#111827" text-anchor="middle">UCIP</text>
<text x="448" y="871" font-family="Inter, -apple-system, Arial, sans-serif" font-weight="400" font-size="42" fill="#111827" fill-opacity="0.4" text-anchor="middle">Urban Climate Intelligence Platform</text>
</svg>